<svg xmlns="http://www.w3.org/2000/svg" width="800" height="600" viewBox="0 0 800 600">
  <defs>
    <linearGradient id="grid-gradient" x1="0%" y1="0%" x2="100%" y2="100%">
      <stop offset="0%" stop-color="#00e5ff" stop-opacity="0.05"/>
      <stop offset="50%" stop-color="#00e5ff" stop-opacity="0.02"/>
      <stop offset="100%" stop-color="#ff00e5" stop-opacity="0.05"/>
    </linearGradient>
    
    <radialGradient id="glow-gradient" cx="50%" cy="50%" r="50%" fx="50%" fy="50%">
      <stop offset="0%" stop-color="#00e5ff" stop-opacity="0.1"/>
      <stop offset="70%" stop-color="#00e5ff" stop-opacity="0.05"/>
      <stop offset="100%" stop-color="#00e5ff" stop-opacity="0"/>
    </radialGradient>
    
    <filter id="glow" x="-50%" y="-50%" width="200%" height="200%">
      <feGaussianBlur stdDeviation="10" result="blur"/>
      <feComposite in="SourceGraphic" in2="blur" operator="over"/>
    </filter>
  </defs>
  
  <!-- Background grid -->
  <g opacity="0.3">
    <!-- Horizontal lines -->
    <g stroke="#00e5ff" stroke-width="0.5" opacity="0.2">
      <line x1="0" y1="50" x2="800" y2="50"/>
      <line x1="0" y1="100" x2="800" y2="100"/>
      <line x1="0" y1="150" x2="800" y2="150"/>
      <line x1="0" y1="200" x2="800" y2="200"/>
      <line x1="0" y1="250" x2="800" y2="250"/>
      <line x1="0" y1="300" x2="800" y2="300"/>
      <line x1="0" y1="350" x2="800" y2="350"/>
      <line x1="0" y1="400" x2="800" y2="400"/>
      <line x1="0" y1="450" x2="800" y2="450"/>
      <line x1="0" y1="500" x2="800" y2="500"/>
      <line x1="0" y1="550" x2="800" y2="550"/>
    </g>
    
    <!-- Vertical lines -->
    <g stroke="#00e5ff" stroke-width="0.5" opacity="0.2">
      <line x1="50" y1="0" x2="50" y2="600"/>
      <line x1="100" y1="0" x2="100" y2="600"/>
      <line x1="150" y1="0" x2="150" y2="600"/>
      <line x1="200" y1="0" x2="200" y2="600"/>
      <line x1="250" y1="0" x2="250" y2="600"/>
      <line x1="300" y1="0" x2="300" y2="600"/>
      <line x1="350" y1="0" x2="350" y2="600"/>
      <line x1="400" y1="0" x2="400" y2="600"/>
      <line x1="450" y1="0" x2="450" y2="600"/>
      <line x1="500" y1="0" x2="500" y2="600"/>
      <line x1="550" y1="0" x2="550" y2="600"/>
      <line x1="600" y1="0" x2="600" y2="600"/>
      <line x1="650" y1="0" x2="650" y2="600"/>
      <line x1="700" y1="0" x2="700" y2="600"/>
      <line x1="750" y1="0" x2="750" y2="600"/>
    </g>
  </g>
  
  <!-- Glowing Elements -->
  <g filter="url(#glow)">
    <!-- Top right glow -->
    <circle cx="700" cy="100" r="80" fill="url(#glow-gradient)" opacity="0.5"/>
    
    <!-- Bottom left glow -->
    <circle cx="150" cy="450" r="100" fill="url(#glow-gradient)" opacity="0.4"/>
    
    <!-- Center glow -->
    <circle cx="400" cy="300" r="120" fill="url(#glow-gradient)" opacity="0.3"/>
  </g>
  
  <!-- Digital pattern elements -->
  <g opacity="0.7">
    <!-- Circuit-like elements -->
    <path d="M50 250 L150 250 L150 350 L250 350 L250 450 L350 450" 
          fill="none" stroke="#00e5ff" stroke-width="2" opacity="0.3"/>
    
    <path d="M650 150 L550 150 L550 250 L450 250 L450 350 L550 350 L550 450" 
          fill="none" stroke="#ff00e5" stroke-width="2" opacity="0.3"/>
    
    <!-- Nodes -->
    <circle cx="150" cy="250" r="4" fill="#00e5ff" opacity="0.7"/>
    <circle cx="150" cy="350" r="4" fill="#00e5ff" opacity="0.7"/>
    <circle cx="250" cy="350" r="4" fill="#00e5ff" opacity="0.7"/>
    <circle cx="250" cy="450" r="4" fill="#00e5ff" opacity="0.7"/>
    
    <circle cx="550" cy="150" r="4" fill="#ff00e5" opacity="0.7"/>
    <circle cx="550" cy="250" r="4" fill="#ff00e5" opacity="0.7"/>
    <circle cx="450" cy="250" r="4" fill="#ff00e5" opacity="0.7"/>
    <circle cx="450" cy="350" r="4" fill="#ff00e5" opacity="0.7"/>
    <circle cx="550" cy="350" r="4" fill="#ff00e5" opacity="0.7"/>
  </g>
  
  <!-- Abstract 3D shapes -->
  <g opacity="0.2">
    <!-- 3D Cube wireframe -->
    <g transform="translate(600, 400) rotate(45)">
      <rect x="-30" y="-30" width="60" height="60" fill="none" stroke="#00e5ff" stroke-width="1"/>
      <rect x="-20" y="-20" width="60" height="60" fill="none" stroke="#00e5ff" stroke-width="1"/>
      <line x1="-30" y1="-30" x2="-20" y2="-20" stroke="#00e5ff" stroke-width="1"/>
      <line x1="30" y1="-30" x2="40" y2="-20" stroke="#00e5ff" stroke-width="1"/>
      <line x1="-30" y1="30" x2="-20" y2="40" stroke="#00e5ff" stroke-width="1"/>
      <line x1="30" y1="30" x2="40" y2="40" stroke="#00e5ff" stroke-width="1"/>
    </g>
    
    <!-- 3D Pyramid wireframe -->
    <g transform="translate(200, 150) rotate(20)">
      <path d="M0 -40 L30 20 L-30 20 Z" fill="none" stroke="#ff00e5" stroke-width="1"/>
      <path d="M0 -40 L0 0 L30 20 Z" fill="none" stroke="#ff00e5" stroke-width="1"/>
      <path d="M0 -40 L0 0 L-30 20 Z" fill="none" stroke="#ff00e5" stroke-width="1"/>
    </g>
  </g>
</svg>
